<?xml version="1.0" encoding="utf-8"?>
<!-- Generator: Adobe Illustrator 22.1.0, SVG Export Plug-In . SVG Version: 6.00 Build 0)  -->
<svg version="1.1" id="Layer_1" xmlns="http://www.w3.org/2000/svg" xmlns:xlink="http://www.w3.org/1999/xlink" x="0px" y="0px"
	 viewBox="0 0 327.9 125.3" style="enable-background:new 0 0 327.9 125.3;" xml:space="preserve">
<style type="text/css">
	.st0{fill:url(#SVGID_1_);}
	.st1{fill:url(#SVGID_2_);}
	.st2{fill:url(#SVGID_3_);}
	.st3{fill:url(#SVGID_4_);}
	.st4{fill:url(#SVGID_5_);}
	.st5{fill:url(#SVGID_6_);}
	.st6{fill:url(#SVGID_7_);}
	.st7{fill:url(#SVGID_8_);}
	.st8{fill:url(#SVGID_9_);}
	.st9{fill:url(#SVGID_10_);}
</style>
<title>logo-black</title>
<g>
	<path d="M150.6,117c-0.3-0.2-0.4-0.5-0.4-0.8c0-0.7,0.4-1,1.1-1l0.9-0.1c0.9,0,1.7-0.3,2.3-0.9c0.6-0.8,0.8-1.8,0.8-2.8V97.1
		c0-0.3,0.1-0.7,0.4-0.9c0.2-0.2,0.5-0.4,0.9-0.3c0.3,0,0.7,0.1,0.9,0.3c0.2,0.2,0.3,0.6,0.3,0.9v14.4c0.1,1.5-0.3,3-1.3,4.2
		c-1,1-2.4,1.6-3.8,1.5l-0.9,0.1C151.4,117.3,151,117.2,150.6,117z"/>
	<path d="M179.1,121c0.1,0.2,0.2,0.4,0.2,0.7c0,0.3-0.1,0.5-0.3,0.7s-0.5,0.3-0.8,0.3c-0.5,0-1-0.3-1.3-0.8l-1.7-2.9
		c-0.7-1.1-2-1.8-3.4-1.7c-1.8,0-3.6-0.4-5.1-1.3s-2.6-2.2-3.3-3.8c-0.8-1.8-1.2-3.8-1.2-5.7c-0.1-2,0.3-4,1.2-5.8
		c0.7-1.6,1.9-2.9,3.3-3.8c3.2-1.7,7.1-1.7,10.3,0c1.5,0.9,2.6,2.2,3.3,3.8c0.8,1.8,1.2,3.8,1.2,5.7c0.1,2.3-0.5,4.5-1.6,6.5
		c-1,1.7-2.5,3-4.4,3.7c0.4,0.1,0.8,0.4,1.2,0.7c0.4,0.4,0.7,0.9,1,1.4L179.1,121z M166.6,113c2.7,2.9,7.3,3,10.1,0.3
		c0.1-0.1,0.2-0.2,0.3-0.3c1.4-1.9,2-4.2,1.9-6.5c0.2-2.3-0.5-4.6-1.9-6.4c-2.7-2.9-7.3-3-10.2-0.3c-0.1,0.1-0.2,0.2-0.3,0.3
		c-1.4,1.9-2,4.1-1.9,6.4C164.5,108.8,165.2,111.1,166.6,113z"/>
	<path d="M197.5,102.5c0.2,0.2,0.3,0.6,0.3,0.9v12.7c0,0.3-0.1,0.6-0.3,0.8c-0.2,0.2-0.6,0.3-0.9,0.3c-0.3,0-0.6-0.1-0.9-0.3
		c-0.2-0.2-0.3-0.5-0.3-0.8v-1.5c-0.4,0.8-1.1,1.5-1.9,2c-0.9,0.5-1.8,0.7-2.8,0.7c-1.5,0.1-2.9-0.4-3.9-1.4c-1-1.2-1.4-2.8-1.3-4.3
		v-8.2c0-0.3,0.1-0.6,0.3-0.9c0.2-0.2,0.6-0.3,0.9-0.3c0.3,0,0.6,0.1,0.9,0.3c0.2,0.2,0.3,0.5,0.3,0.9v8.1c-0.1,1,0.2,2,0.8,2.9
		c0.6,0.7,1.5,1,2.5,0.9c1.2,0.1,2.3-0.4,3.1-1.2c0.8-0.9,1.2-2.1,1.2-3.3v-7.3c0-0.3,0.1-0.6,0.3-0.9c0.2-0.2,0.6-0.3,0.9-0.3
		C196.9,102.2,197.3,102.3,197.5,102.5z"/>
	<path d="M214.2,114c0.2,0.2,0.2,0.4,0.2,0.7c0,0.5-0.3,1-1,1.4c-1.4,0.8-3,1.3-4.6,1.3c-2,0.1-3.9-0.6-5.4-2
		c-1.4-1.5-2.1-3.5-2-5.6c0-1.4,0.3-2.8,0.9-4c0.5-1.1,1.4-2,2.4-2.7c1.1-0.7,2.3-1,3.6-1c1.7-0.1,3.4,0.6,4.5,1.9
		c1.2,1.4,1.8,3.2,1.7,5c0,0.3-0.1,0.6-0.2,0.9c-0.2,0.2-0.5,0.3-0.8,0.3h-9.7c0.2,3.4,1.8,5.2,4.9,5.2c0.7,0,1.4-0.1,2-0.3
		c0.6-0.2,1.2-0.5,1.8-0.9c0.3-0.2,0.7-0.4,1.1-0.4C213.9,113.7,214.1,113.8,214.2,114z M205.3,105.2c-0.8,0.9-1.3,2.1-1.4,3.4h8.5
		c0-1.2-0.3-2.4-1.1-3.4c-0.8-0.8-1.8-1.3-2.9-1.2C207.3,104,206.1,104.4,205.3,105.2L205.3,105.2z"/>
	<path d="M226.6,103.2c0,0.3-0.1,0.6-0.3,0.8c-0.3,0.2-0.6,0.3-0.9,0.3l-0.9,0.1c-1.2,0-2.2,0.5-3,1.4c-0.7,0.8-1,1.9-1,2.9v7.3
		c0,0.3-0.1,0.7-0.3,0.9c-0.2,0.2-0.6,0.3-0.9,0.3c-0.3,0-0.6-0.1-0.9-0.3c-0.2-0.2-0.4-0.6-0.3-0.9v-12.7c0-0.3,0.1-0.7,0.4-0.9
		c0.2-0.2,0.6-0.3,0.9-0.3c0.3,0,0.6,0.1,0.8,0.3c0.2,0.2,0.3,0.5,0.3,0.8v1.6c0.4-0.8,1-1.5,1.8-2s1.7-0.7,2.7-0.8h0.4
		C226.2,102.1,226.6,102.5,226.6,103.2z"/>
	<path d="M241.2,102.2c0.3,0,0.6,0.1,0.8,0.3c0.2,0.2,0.4,0.5,0.4,0.8c0,0.2,0,0.3-0.1,0.5l-8.4,18.2c-0.1,0.2-0.2,0.4-0.4,0.5
		s-0.4,0.2-0.6,0.2c-0.3,0-0.6-0.1-0.8-0.3c-0.2-0.2-0.3-0.5-0.3-0.7s0-0.3,0.1-0.5l2.1-4.5l-5.9-12.8c-0.1-0.1-0.1-0.3-0.1-0.4
		c0-0.3,0.2-0.6,0.4-0.8c0.2-0.2,0.6-0.3,0.9-0.3c0.2,0,0.4,0.1,0.6,0.2c0.2,0.1,0.3,0.3,0.4,0.5l5,11.3l5-11.2
		C240.3,102.5,240.8,102.2,241.2,102.2z"/>
	<path d="M253.5,116.8c-0.2-0.2-0.4-0.5-0.3-0.9V97.2c0-0.3,0.1-0.6,0.3-0.9c0.3-0.2,0.6-0.3,0.9-0.3h5.9c3.4,0,6,0.9,7.8,2.8
		c1.8,1.8,2.8,4.4,2.8,7.8s-0.9,6-2.8,7.8s-4.5,2.8-7.8,2.8h-5.9C254.1,117.1,253.8,117,253.5,116.8z M260.1,115
		c5.5,0,8.2-2.8,8.2-8.5s-2.7-8.5-8.2-8.5h-4.5v17H260.1z"/>
	<path d="M277.4,116.4c-1.1-0.6-1.9-1.5-2.4-2.7c-1.1-2.5-1.1-5.5,0-8c0.5-1.1,1.4-2,2.4-2.7c2.3-1.2,5-1.2,7.3,0
		c1.1,0.6,1.9,1.5,2.4,2.7c1.1,2.5,1.1,5.5,0,8c-0.5,1.1-1.4,2-2.4,2.7C282.4,117.6,279.7,117.6,277.4,116.4z M284.4,113.9
		c0.9-1.2,1.3-2.7,1.2-4.2c0.1-1.5-0.3-2.9-1.2-4.1c-1.7-1.8-4.5-2-6.3-0.3c-0.1,0.1-0.2,0.2-0.3,0.3c-1.5,2.5-1.5,5.7,0,8.3
		c1.7,1.8,4.6,1.9,6.4,0.2C284.3,114,284.3,113.9,284.4,113.9L284.4,113.9z"/>
	<path d="M294,116.4c-1.1-0.6-1.9-1.5-2.4-2.6c-1.2-2.5-1.2-5.4,0-7.9c0.6-1.1,1.4-2.1,2.5-2.7c1.1-0.7,2.4-1,3.7-1
		c0.8,0,1.5,0.1,2.3,0.3c0.7,0.2,1.4,0.5,2,0.9c0.3,0.2,0.6,0.4,0.8,0.7c0.2,0.2,0.2,0.5,0.2,0.8s-0.1,0.5-0.2,0.7s-0.4,0.3-0.6,0.3
		s-0.3,0-0.5-0.1c-0.1-0.1-0.3-0.1-0.4-0.2l-0.2-0.2c-0.5-0.3-1-0.6-1.5-0.8c-0.5-0.2-1.1-0.3-1.7-0.3c-1.3-0.1-2.6,0.5-3.4,1.5
		c-0.9,1.2-1.3,2.6-1.2,4.1c-0.1,1.5,0.3,2.9,1.2,4.1c0.9,1,2.1,1.5,3.4,1.4c0.6,0,1.2-0.1,1.8-0.3c0.5-0.2,1-0.5,1.5-0.8
		c0.2-0.1,0.4-0.3,0.6-0.4s0.3-0.1,0.5-0.2c0.2,0,0.4,0.1,0.5,0.3c0.2,0.2,0.2,0.4,0.2,0.7c0,0.3-0.1,0.5-0.2,0.7
		c-0.2,0.3-0.5,0.5-0.8,0.7c-0.6,0.4-1.3,0.7-2,0.9c-0.8,0.2-1.6,0.3-2.4,0.3C296.4,117.3,295.1,117,294,116.4z"/>
	<path d="M308.3,117c-0.8-0.2-1.5-0.5-2.2-0.9c-0.3-0.2-0.6-0.4-0.8-0.7c-0.2-0.2-0.2-0.5-0.2-0.8c0-0.2,0.1-0.5,0.2-0.6
		c0.1-0.2,0.4-0.3,0.6-0.3c0.4,0.1,0.7,0.2,1,0.4c0.6,0.3,1.2,0.6,1.8,0.9c0.7,0.2,1.5,0.3,2.2,0.3c0.9,0,1.7-0.1,2.5-0.6
		c0.6-0.3,0.9-1,0.9-1.7c0-0.4-0.1-0.8-0.3-1.1c-0.3-0.3-0.7-0.6-1.1-0.7c-0.8-0.3-1.6-0.5-2.4-0.7c-1.4-0.2-2.7-0.7-3.8-1.5
		c-0.8-0.6-1.2-1.6-1.1-2.6c0-0.8,0.2-1.6,0.7-2.3c0.5-0.7,1.2-1.2,2-1.6c0.9-0.4,1.9-0.6,2.9-0.6c0.8,0,1.5,0.1,2.3,0.3
		c0.7,0.2,1.3,0.5,1.9,0.9c0.6,0.3,0.9,0.9,1,1.5c0,0.2-0.1,0.5-0.2,0.7s-0.3,0.3-0.6,0.3c-0.4-0.1-0.8-0.2-1.1-0.5
		c-0.5-0.3-1-0.6-1.6-0.8c-0.6-0.2-1.2-0.3-1.9-0.3c-0.8,0-1.6,0.2-2.3,0.6c-0.5,0.4-0.9,1-0.9,1.7c0,0.4,0.1,0.8,0.3,1.1
		c0.3,0.3,0.6,0.6,1,0.7c0.7,0.3,1.4,0.5,2.1,0.6c1.1,0.2,2.1,0.6,3.2,1c1.4,0.5,2.2,1.9,2.1,3.3c0,1.2-0.6,2.3-1.6,3
		c-1.2,0.8-2.7,1.2-4.2,1.2C310,117.3,309.1,117.2,308.3,117z"/>
</g>
<g>
	<path d="M162,62.3c0,14.4-10.7,24.5-26.2,24.5h-20.4v-49h20.8C151.4,37.8,162,47.8,162,62.3z M150.7,62.3c0-9-6.3-15.3-14.7-15.3
		h-9.5v30.4h10C144.7,77.5,150.7,71.3,150.7,62.3z"/>
	<path d="M220.7,62.3c0,14.1-11.3,25-26.3,25S168,76.5,168,62.3c0-14.3,11.3-24.9,26.3-24.9S220.7,48,220.7,62.3z M179.4,62.3
		c0,8.6,6.9,15.3,15.1,15.3c8.2,0,14.8-6.7,14.8-15.3s-6.7-15.2-14.8-15.2C186.2,47.1,179.4,53.6,179.4,62.3z"/>
	<path d="M258,86.8l-7.8-14h-1H239v14h-11.1v-49h21.3c12.8,0,20.1,6.2,20.1,17c0,7.6-3.2,13-9.2,15.8l10.4,16.2H258z M239,63.5h10.2
		c6.1,0,9.6-2.8,9.6-8.4c0-5.5-3.5-8.2-9.6-8.2H239V63.5z"/>
	<path d="M315.9,37.8V47h-26.3v10.6h23.6v9.2h-23.6v10.9h27v9.2h-38.1v-49L315.9,37.8L315.9,37.8z"/>
</g>
<g>
	<linearGradient id="SVGID_1_" gradientUnits="userSpaceOnUse" x1="-3.1699" y1="28.4159" x2="45.2594" y2="100.2154">
		<stop  offset="0" style="stop-color:#2360B1"/>
		<stop  offset="0.25" style="stop-color:#256FBF"/>
		<stop  offset="0.5594" style="stop-color:#2360B1"/>
		<stop  offset="0.8" style="stop-color:#A02D6E"/>
		<stop  offset="0.9" style="stop-color:#F3506F"/>
		<stop  offset="1" style="stop-color:#FCB450"/>
	</linearGradient>
	<path class="st0" d="M27.6,89.5l7.4,13.8c5.9-3.6,11.6-7.4,17.2-11.4l-23.2-4.3C27.5,87.4,26.9,88.2,27.6,89.5z"/>
	<linearGradient id="SVGID_2_" gradientUnits="userSpaceOnUse" x1="-25.4305" y1="43.4309" x2="22.9989" y2="115.2303">
		<stop  offset="0" style="stop-color:#2360B1"/>
		<stop  offset="0.25" style="stop-color:#256FBF"/>
		<stop  offset="0.5594" style="stop-color:#2360B1"/>
		<stop  offset="0.8" style="stop-color:#A02D6E"/>
		<stop  offset="0.9" style="stop-color:#F3506F"/>
		<stop  offset="1" style="stop-color:#FCB450"/>
	</linearGradient>
	<path class="st1" d="M19.4,85.9c-0.3-0.1-1.4,0.6-2.6,1.4l-16.1,12c-1.6,12.2,8.5,19.1,22.1,11.1c2.6-1.4,5.2-2.9,7.7-4.4
		l-9.4-17.7C20.4,87,19.6,86,19.4,85.9z"/>
	<linearGradient id="SVGID_3_" gradientUnits="userSpaceOnUse" x1="31.2898" y1="5.1726" x2="79.7191" y2="76.972">
		<stop  offset="0" style="stop-color:#2360B1"/>
		<stop  offset="0.25" style="stop-color:#256FBF"/>
		<stop  offset="0.5594" style="stop-color:#2360B1"/>
		<stop  offset="0.8" style="stop-color:#A02D6E"/>
		<stop  offset="0.9" style="stop-color:#F3506F"/>
		<stop  offset="1" style="stop-color:#FCB450"/>
	</linearGradient>
	<path class="st2" d="M65.3,51.3l-9.5,7c-1.1,0.8-1.3,2.4-0.2,3.4l15.9,15.9c10-7.4,11.3-17.5,4.8-25.9l-6.4-1.4
		C68.6,50,66.5,50.4,65.3,51.3z"/>
	<linearGradient id="SVGID_4_" gradientUnits="userSpaceOnUse" x1="6.6669" y1="21.7809" x2="55.0962" y2="93.5804">
		<stop  offset="0" style="stop-color:#2360B1"/>
		<stop  offset="0.25" style="stop-color:#256FBF"/>
		<stop  offset="0.5594" style="stop-color:#2360B1"/>
		<stop  offset="0.8" style="stop-color:#A02D6E"/>
		<stop  offset="0.9" style="stop-color:#F3506F"/>
		<stop  offset="1" style="stop-color:#FCB450"/>
	</linearGradient>
	<path class="st3" d="M51.5,64.8c-1-1-2.8-1.1-3.9-0.3L26.6,80.1c-1.1,0.8-0.9,1.8,0.5,2l30.9,5.7c3.2-2.3,6.3-4.7,9.4-7.1
		L51.5,64.8z"/>
	<linearGradient id="SVGID_5_" gradientUnits="userSpaceOnUse" x1="24.2864" y1="9.8964" x2="72.7157" y2="81.6959">
		<stop  offset="0" style="stop-color:#2360B1"/>
		<stop  offset="0.25" style="stop-color:#256FBF"/>
		<stop  offset="0.5594" style="stop-color:#2360B1"/>
		<stop  offset="0.8" style="stop-color:#A02D6E"/>
		<stop  offset="0.9" style="stop-color:#F3506F"/>
		<stop  offset="1" style="stop-color:#FCB450"/>
	</linearGradient>
	<path class="st4" d="M58.2,47.7l-18.5-4C38.3,43.4,38,44,39,45l9.3,9.3c1,1,2.8,1.1,3.9,0.3l6.4-4.8C59.8,49,59.6,48,58.2,47.7z"/>
	<linearGradient id="SVGID_6_" gradientUnits="userSpaceOnUse" x1="5.0473" y1="22.8733" x2="53.4767" y2="94.6728">
		<stop  offset="0" style="stop-color:#2360B1"/>
		<stop  offset="0.25" style="stop-color:#256FBF"/>
		<stop  offset="0.5594" style="stop-color:#2360B1"/>
		<stop  offset="0.8" style="stop-color:#A02D6E"/>
		<stop  offset="0.9" style="stop-color:#F3506F"/>
		<stop  offset="1" style="stop-color:#FCB450"/>
	</linearGradient>
	<path class="st5" d="M21.8,35.1L2.3,15.6c-2.4,4-2.5,10,0.6,16.8l18.1,3.9C22.5,36.7,22.8,36.1,21.8,35.1z"/>
	<linearGradient id="SVGID_7_" gradientUnits="userSpaceOnUse" x1="-15.8296" y1="36.955" x2="32.5998" y2="108.7544">
		<stop  offset="0" style="stop-color:#2360B1"/>
		<stop  offset="0.25" style="stop-color:#256FBF"/>
		<stop  offset="0.5594" style="stop-color:#2360B1"/>
		<stop  offset="0.8" style="stop-color:#A02D6E"/>
		<stop  offset="0.9" style="stop-color:#F3506F"/>
		<stop  offset="1" style="stop-color:#FCB450"/>
	</linearGradient>
	<path class="st6" d="M15.5,77.9L7.1,61.9c0,5.4-0.4,10.9-1.1,16.2l8.3,1.5C15.6,80,16.2,79.1,15.5,77.9z"/>
	<linearGradient id="SVGID_8_" gradientUnits="userSpaceOnUse" x1="24.4421" y1="9.7914" x2="72.8714" y2="81.5909">
		<stop  offset="0" style="stop-color:#2360B1"/>
		<stop  offset="0.25" style="stop-color:#256FBF"/>
		<stop  offset="0.5594" style="stop-color:#2360B1"/>
		<stop  offset="0.8" style="stop-color:#A02D6E"/>
		<stop  offset="0.9" style="stop-color:#F3506F"/>
		<stop  offset="1" style="stop-color:#FCB450"/>
	</linearGradient>
	<path class="st7" d="M35.5,39.5l26.2,5.7c1.4,0.3,3.5-0.1,4.6-1l0.9-0.7C52.9,32.6,38.6,22.7,22.8,14C16,10,10,9.7,6,12l25.1,25.1
		C32.1,38.1,34.1,39.2,35.5,39.5z"/>
	<linearGradient id="SVGID_9_" gradientUnits="userSpaceOnUse" x1="-23.8281" y1="42.35" x2="24.6013" y2="114.1495">
		<stop  offset="0" style="stop-color:#2360B1"/>
		<stop  offset="0.25" style="stop-color:#256FBF"/>
		<stop  offset="0.5594" style="stop-color:#2360B1"/>
		<stop  offset="0.8" style="stop-color:#A02D6E"/>
		<stop  offset="0.9" style="stop-color:#F3506F"/>
		<stop  offset="1" style="stop-color:#FCB450"/>
	</linearGradient>
	<path class="st8" d="M9.4,84.1L5,83.3c-0.5,2.6-1.1,5.2-1.8,7.8l6.6-4.9C11,85.2,10.8,84.3,9.4,84.1z"/>
	<linearGradient id="SVGID_10_" gradientUnits="userSpaceOnUse" x1="3.4685" y1="23.9383" x2="51.8978" y2="95.7377">
		<stop  offset="0" style="stop-color:#2360B1"/>
		<stop  offset="0.25" style="stop-color:#256FBF"/>
		<stop  offset="0.5594" style="stop-color:#2360B1"/>
		<stop  offset="0.8" style="stop-color:#A02D6E"/>
		<stop  offset="0.9" style="stop-color:#F3506F"/>
		<stop  offset="1" style="stop-color:#FCB450"/>
	</linearGradient>
	<path class="st9" d="M20,75.3c0.7,1.3,2.1,1.6,3.3,0.7l20.5-15.3c1.1-0.8,1.3-2.4,0.2-3.4L29.6,43c-1-1-3-2.1-4.4-2.4L3.9,36
		c1.1,4.4,1.9,9,2.4,13.6L20,75.3z"/>
</g>
</svg>
